<mxfile host="app.diagrams.net" modified="2022-02-10T16:05:40.906Z" agent="5.0 (Windows NT 10.0; Win64; x64) AppleWebKit/537.36 (KHTML, like Gecko) Chrome/98.0.4758.82 Safari/537.36" etag="8eHATuHSmWM_Cyi-1A9W" version="15.6.8" type="github">
  <diagram id="8wQjF-_wyhLF4E3nh7Iq" name="Page-1">
    <mxGraphModel dx="782" dy="514" grid="1" gridSize="10" guides="1" tooltips="1" connect="1" arrows="1" fold="1" page="1" pageScale="1" pageWidth="827" pageHeight="1169" math="0" shadow="0">
      <root>
        <mxCell id="0" />
        <mxCell id="1" parent="0" />
        <mxCell id="30to3Vy6EegckWAvz_Lj-13" style="edgeStyle=orthogonalEdgeStyle;rounded=0;orthogonalLoop=1;jettySize=auto;html=1;entryX=0.5;entryY=0;entryDx=0;entryDy=0;" parent="1" source="30to3Vy6EegckWAvz_Lj-1" target="30to3Vy6EegckWAvz_Lj-8" edge="1">
          <mxGeometry relative="1" as="geometry" />
        </mxCell>
        <mxCell id="30to3Vy6EegckWAvz_Lj-1" value="Main" style="swimlane;" parent="1" vertex="1">
          <mxGeometry x="300" y="170" width="200" height="80" as="geometry" />
        </mxCell>
        <mxCell id="30to3Vy6EegckWAvz_Lj-2" value="Contrôle des différents modules" style="text;html=1;align=center;verticalAlign=middle;resizable=0;points=[];autosize=1;strokeColor=none;fillColor=none;" parent="30to3Vy6EegckWAvz_Lj-1" vertex="1">
          <mxGeometry x="10" y="30" width="180" height="20" as="geometry" />
        </mxCell>
        <mxCell id="30to3Vy6EegckWAvz_Lj-3" value="Contient le UI" style="text;html=1;strokeColor=none;fillColor=none;align=center;verticalAlign=middle;whiteSpace=wrap;rounded=0;" parent="30to3Vy6EegckWAvz_Lj-1" vertex="1">
          <mxGeometry x="60" y="50" width="80" height="30" as="geometry" />
        </mxCell>
        <mxCell id="30to3Vy6EegckWAvz_Lj-4" value="Webcam" style="swimlane;" parent="1" vertex="1">
          <mxGeometry x="70" y="260" width="200" height="70" as="geometry" />
        </mxCell>
        <mxCell id="30to3Vy6EegckWAvz_Lj-5" value="Module de contrôle de la&lt;br&gt;webcam (allumée, éteinte, etc.)" style="text;html=1;align=center;verticalAlign=middle;resizable=0;points=[];autosize=1;strokeColor=none;fillColor=none;" parent="30to3Vy6EegckWAvz_Lj-4" vertex="1">
          <mxGeometry x="10" y="30" width="180" height="30" as="geometry" />
        </mxCell>
        <mxCell id="30to3Vy6EegckWAvz_Lj-8" value="MovementAnalyzer" style="swimlane;" parent="1" vertex="1">
          <mxGeometry x="300" y="340" width="200" height="190" as="geometry" />
        </mxCell>
        <mxCell id="30to3Vy6EegckWAvz_Lj-9" value="Module d&#39;analyse du mouvement" style="text;html=1;align=center;verticalAlign=middle;resizable=0;points=[];autosize=1;strokeColor=none;fillColor=none;" parent="30to3Vy6EegckWAvz_Lj-8" vertex="1">
          <mxGeometry x="5" y="30" width="190" height="20" as="geometry" />
        </mxCell>
        <mxCell id="30to3Vy6EegckWAvz_Lj-10" value="Module le plus long et le plus&lt;br&gt;complexe" style="text;html=1;align=center;verticalAlign=middle;resizable=0;points=[];autosize=1;strokeColor=none;fillColor=none;" parent="30to3Vy6EegckWAvz_Lj-8" vertex="1">
          <mxGeometry x="15" y="60" width="170" height="30" as="geometry" />
        </mxCell>
        <mxCell id="30to3Vy6EegckWAvz_Lj-11" value="Permet de créer l&#39;objet&lt;br&gt;&quot;Movement Analyzer&quot; qu&#39;on&lt;br&gt;utilisera dans le Main" style="text;html=1;align=center;verticalAlign=middle;resizable=0;points=[];autosize=1;strokeColor=none;fillColor=none;" parent="30to3Vy6EegckWAvz_Lj-8" vertex="1">
          <mxGeometry x="20" y="100" width="160" height="50" as="geometry" />
        </mxCell>
        <mxCell id="30to3Vy6EegckWAvz_Lj-12" value="Intègre la librairie OpenCV" style="text;html=1;align=center;verticalAlign=middle;resizable=0;points=[];autosize=1;strokeColor=none;fillColor=none;" parent="30to3Vy6EegckWAvz_Lj-8" vertex="1">
          <mxGeometry x="20" y="160" width="160" height="20" as="geometry" />
        </mxCell>
        <mxCell id="30to3Vy6EegckWAvz_Lj-14" value="LightController" style="swimlane;" parent="1" vertex="1">
          <mxGeometry x="530" y="260" width="200" height="190" as="geometry" />
        </mxCell>
        <mxCell id="30to3Vy6EegckWAvz_Lj-15" value="Intègre l&#39;API de LIFX" style="text;html=1;align=center;verticalAlign=middle;resizable=0;points=[];autosize=1;strokeColor=none;fillColor=none;" parent="30to3Vy6EegckWAvz_Lj-14" vertex="1">
          <mxGeometry x="35" y="30" width="130" height="20" as="geometry" />
        </mxCell>
        <mxCell id="30to3Vy6EegckWAvz_Lj-16" value="Intègre des notions de réseau" style="text;html=1;align=center;verticalAlign=middle;resizable=0;points=[];autosize=1;strokeColor=none;fillColor=none;" parent="30to3Vy6EegckWAvz_Lj-14" vertex="1">
          <mxGeometry x="15" y="60" width="170" height="20" as="geometry" />
        </mxCell>
        <mxCell id="30to3Vy6EegckWAvz_Lj-17" value="Permet de créer l&#39;objet&lt;br&gt;&quot;Light Controller&quot; à utiliser&lt;br&gt;dans le Main" style="text;html=1;align=center;verticalAlign=middle;resizable=0;points=[];autosize=1;strokeColor=none;fillColor=none;" parent="30to3Vy6EegckWAvz_Lj-14" vertex="1">
          <mxGeometry x="25" y="90" width="150" height="50" as="geometry" />
        </mxCell>
        <mxCell id="30to3Vy6EegckWAvz_Lj-18" value="Gère l&#39;envoie de packets&lt;br&gt;à travers un réseau local" style="text;html=1;align=center;verticalAlign=middle;resizable=0;points=[];autosize=1;strokeColor=none;fillColor=none;" parent="30to3Vy6EegckWAvz_Lj-14" vertex="1">
          <mxGeometry x="25" y="160" width="150" height="30" as="geometry" />
        </mxCell>
        <mxCell id="30to3Vy6EegckWAvz_Lj-19" style="edgeStyle=orthogonalEdgeStyle;rounded=0;orthogonalLoop=1;jettySize=auto;html=1;entryX=0.5;entryY=0;entryDx=0;entryDy=0;" parent="1" source="30to3Vy6EegckWAvz_Lj-2" target="30to3Vy6EegckWAvz_Lj-14" edge="1">
          <mxGeometry relative="1" as="geometry" />
        </mxCell>
        <mxCell id="NyEJ1CGp6BJi718Na5iM-1" style="edgeStyle=orthogonalEdgeStyle;rounded=0;orthogonalLoop=1;jettySize=auto;html=1;entryX=0.5;entryY=0;entryDx=0;entryDy=0;" edge="1" parent="1" source="30to3Vy6EegckWAvz_Lj-2" target="30to3Vy6EegckWAvz_Lj-4">
          <mxGeometry relative="1" as="geometry" />
        </mxCell>
      </root>
    </mxGraphModel>
  </diagram>
</mxfile>
